<svg xmlns="http://www.w3.org/2000/svg" viewBox="0 0 1653.86 762.55"><defs><style>.cls-1{fill:#ffda84;}.cls-2{fill:#feda13;}.cls-3{font-size:242.43px;fill:#231f20;font-family:AirbnbCerealApp-Bold, Airbnb Cereal App;font-weight:700;}.cls-4{letter-spacing:-0.02em;}.cls-5{letter-spacing:-0.02em;}.cls-6{letter-spacing:0em;}.cls-7{fill:#ffda79;}</style></defs><title>logosvg</title><g id="Layer_2" data-name="Layer 2"><g id="Layer_1-2" data-name="Layer 1"><rect class="cls-1" x="135.28" y="173.74" width="107.47" height="112.46" rx="15.14"/><rect class="cls-1" x="1329.44" y="171.01" width="107.47" height="112.46" rx="15.14"/><path class="cls-2" d="M747.94,448.74,515.63,308.35V139.55L747.94,0V147.07L608.39,224.79l139.55,78.55Z"/><path class="cls-2" d="M827,448.74V303.34l139.56-78.55L827,147.07V0l232.31,139.55v168.8Z"/><text class="cls-3" transform="translate(0 695.15)">Hi-D<tspan class="cls-4" x="514.92" y="0">e</tspan><tspan class="cls-5" x="653.59" y="0">v</tspan><tspan x="784.99" y="0">elo</tspan><tspan class="cls-6" x="1139.91" y="0">p</tspan><tspan x="1296.03" y="0">ers</tspan></text><rect class="cls-7" x="219.96" y="138.77" width="181.22" height="181.22" rx="31.95"/><rect class="cls-7" x="219.96" y="80.4" width="90.61" height="181.22" rx="31.95"/><rect class="cls-7" x="1166.21" y="138.77" width="181.22" height="181.22" rx="31.95" transform="translate(2513.64 458.75) rotate(-180)"/><rect class="cls-7" x="1256.82" y="83.14" width="90.61" height="181.22" rx="31.95" transform="translate(2604.25 347.49) rotate(-180)"/></g></g></svg>